<svg width="100%" height="100%" viewBox="0 0 126 27">
  <path d="M10.0403 21.6C8.10027 21.6 6.37027 21.14 4.85027 20.22C3.35027 19.3 2.19027 18.04 1.37027 16.44C0.550273 14.84 0.140273 13.06 0.140273 11.1C0.140273 9.14 0.550273 7.36 1.37027 5.76C2.19027 4.16 3.35027 2.9 4.85027 1.98C6.37027 1.06 8.10027 0.6 10.0403 0.6C11.9803 0.6 13.7003 1.06 15.2003 1.98C16.7003 2.9 17.8603 4.16 18.6803 5.76C19.5003 7.36 19.9103 9.14 19.9103 11.1C19.9103 13.06 19.5003 14.84 18.6803 16.44C17.8603 18.04 16.7003 19.3 15.2003 20.22C13.7003 21.14 11.9803 21.6 10.0403 21.6ZM10.0403 20.25C11.8603 20.25 13.2703 19.46 14.2703 17.88C15.2703 16.28 15.7703 14.02 15.7703 11.1C15.7703 8.18 15.2703 5.93 14.2703 4.35C13.2703 2.75 11.8603 1.95 10.0403 1.95C8.22027 1.95 6.81027 2.75 5.81027 4.35C4.83027 5.93 4.34027 8.18 4.34027 11.1C4.34027 14.02 4.83027 16.28 5.81027 17.88C6.81027 19.46 8.22027 20.25 10.0403 20.25ZM23.4322 10.8C23.4322 9.78 23.2922 9.03 23.0122 8.55C22.7522 8.05 22.2022 7.8 21.3622 7.8H21.0622V6.9H24.0322C24.7122 6.9 25.2422 6.99 25.6222 7.17C26.0222 7.33 26.3322 7.61 26.5522 8.01C27.5722 7.07 29.0322 6.6 30.9322 6.6C32.8322 6.6 34.2522 7.05 35.1922 7.95C36.1522 8.83 36.6322 10.22 36.6322 12.12V21H32.7322V12.09C32.7322 10.71 32.4722 9.7 31.9522 9.06C31.4522 8.42 30.7622 8.1 29.8822 8.1C28.8222 8.1 27.9722 8.35 27.3322 8.85V21H23.4322V10.8ZM40.2081 5.1C40.2081 4.08 40.0681 3.33 39.7881 2.85C39.5081 2.35 38.9481 2.1 38.1081 2.1H37.8081V1.2H41.4081C42.1281 1.2 42.6781 1.32 43.0581 1.56C43.4381 1.8 43.7081 2.2 43.8681 2.76C44.0281 3.3 44.1081 4.08 44.1081 5.1V21H40.2081V5.1ZM48.7825 25.95C49.8825 25.95 50.7725 25.74 51.4525 25.32C52.1325 24.9 52.6825 24.14 53.1025 23.04L53.7325 21.42L48.3325 9.6C47.6725 8.16 46.7425 7.36 45.5425 7.2V6.6H48.1825C49.0625 6.6 49.8425 6.82 50.5225 7.26C51.2025 7.68 51.7225 8.26 52.0825 9L55.5325 16.56L59.1925 6.9H60.7825L54.7225 22.95C54.1625 24.51 53.5125 25.57 52.7725 26.13C52.0325 26.71 51.1025 27 49.9825 27H48.7825V25.95ZM66.1511 21C65.4311 21 64.8811 20.89 64.5011 20.67C64.1211 20.43 63.8511 20.04 63.6911 19.5C63.5311 18.94 63.4511 18.14 63.4511 17.1V1.2H67.3511V17.1C67.3511 18.12 67.4911 18.88 67.7711 19.38C68.0511 19.86 68.6111 20.1 69.4511 20.1H69.7511V21H66.1511ZM72.5924 10.8C72.5924 9.78 72.4524 9.03 72.1724 8.55C71.9124 8.05 71.3624 7.8 70.5224 7.8H70.2224V6.9H73.1924C73.8724 6.9 74.4024 6.99 74.7824 7.17C75.1824 7.33 75.4924 7.61 75.7124 8.01C76.7324 7.07 78.1924 6.6 80.0924 6.6C81.9924 6.6 83.4124 7.05 84.3524 7.95C85.3124 8.83 85.7924 10.22 85.7924 12.12V21H81.8924V12.09C81.8924 10.71 81.6324 9.7 81.1124 9.06C80.6124 8.42 79.9224 8.1 79.0424 8.1C77.9824 8.1 77.1324 8.35 76.4924 8.85V21H72.5924V10.8ZM94.3182 21.3C91.9782 21.3 90.3682 20.89 89.4882 20.07C89.1682 19.77 88.9682 19.35 88.8882 18.81C88.8082 18.25 88.7682 17.48 88.7682 16.5H89.8182C89.9982 17.54 90.4082 18.38 91.0482 19.02C91.6882 19.64 92.5782 19.95 93.7182 19.95C95.7182 19.95 96.7182 19.27 96.7182 17.91C96.7182 17.39 96.4982 16.96 96.0582 16.62C95.6382 16.28 94.9582 15.9 94.0182 15.48L92.4582 14.82C91.1782 14.26 90.2182 13.65 89.5782 12.99C88.9382 12.33 88.6182 11.53 88.6182 10.59C88.6182 9.33 89.1382 8.35 90.1782 7.65C91.2382 6.95 92.6182 6.6 94.3182 6.6C96.6582 6.6 98.2682 7.01 99.1482 7.83C99.4682 8.13 99.6682 8.55 99.7482 9.09C99.8282 9.63 99.8682 10.4 99.8682 11.4H98.8182C98.6382 10.36 98.2282 9.53 97.5882 8.91C96.9482 8.27 96.0582 7.95 94.9182 7.95C94.0582 7.95 93.4182 8.14 92.9982 8.52C92.5782 8.88 92.3682 9.37 92.3682 9.99C92.3682 10.49 92.5382 10.91 92.8782 11.25C93.2382 11.57 93.7782 11.89 94.4982 12.21L96.2982 12.96C97.7782 13.58 98.8382 14.21 99.4782 14.85C100.138 15.47 100.468 16.29 100.468 17.31C100.468 18.59 99.8982 19.58 98.7582 20.28C97.6382 20.96 96.1582 21.3 94.3182 21.3ZM108.261 21.3C106.881 21.3 105.811 20.93 105.051 20.19C104.291 19.43 103.911 18.34 103.911 16.92V8.25H102.111V6.9H103.911V4.2L105.411 2.4H107.811V6.9H111.111V8.25H107.811V17.1C107.811 18.18 107.941 18.93 108.201 19.35C108.461 19.75 108.851 19.95 109.371 19.95C110.191 19.95 110.981 19.68 111.741 19.14L112.161 19.98C111.161 20.86 109.861 21.3 108.261 21.3ZM118.057 21.3C116.437 21.3 115.177 20.94 114.277 20.22C113.397 19.48 112.957 18.49 112.957 17.25C112.957 16.25 113.187 15.42 113.647 14.76C114.127 14.1 114.957 13.6 116.137 13.26C117.317 12.92 118.957 12.75 121.057 12.75H121.507C121.507 11.01 121.267 9.78 120.787 9.06C120.307 8.32 119.597 7.95 118.657 7.95C117.877 7.95 117.237 8.14 116.737 8.52C116.237 8.9 115.877 9.61 115.657 10.65H114.007C114.007 9.97 114.047 9.39 114.127 8.91C114.227 8.43 114.437 8.01 114.757 7.65C115.377 6.95 116.877 6.6 119.257 6.6C121.257 6.6 122.777 7.13 123.817 8.19C124.877 9.23 125.407 10.8 125.407 12.9V21H122.857L121.807 19.65H121.657C121.357 20.11 120.887 20.5 120.247 20.82C119.627 21.14 118.897 21.3 118.057 21.3ZM118.957 19.8C119.557 19.8 120.077 19.6 120.517 19.2C120.977 18.8 121.307 18.35 121.507 17.85V14.1H121.057C119.637 14.1 118.607 14.36 117.967 14.88C117.327 15.38 117.007 16.17 117.007 17.25C117.007 18.07 117.177 18.7 117.517 19.14C117.857 19.58 118.337 19.8 118.957 19.8Z" fill="black"/>
</svg>
