<svg viewBox="0 0 110 31" xmlns="http://www.w3.org/2000/svg">
<path d="M8.64288 18.3333C6.9492 18.3333 5.43889 17.9317 4.1119 17.1286C2.80238 16.3254 1.78968 15.2254 1.07381 13.8286C0.357937 12.4317 0 10.8778 0 9.16667C0 7.45556 0.357937 5.90159 1.07381 4.50476C1.78968 3.10794 2.80238 2.00794 4.1119 1.20476C5.43889 0.401587 6.9492 0 8.64288 0C10.3365 0 11.8381 0.401587 13.1476 1.20476C14.4572 2.00794 15.4699 3.10794 16.1857 4.50476C16.9016 5.90159 17.2595 7.45556 17.2595 9.16667C17.2595 10.8778 16.9016 12.4317 16.1857 13.8286C15.4699 15.2254 14.4572 16.3254 13.1476 17.1286C11.8381 17.9317 10.3365 18.3333 8.64288 18.3333ZM8.64288 17.1548C10.2318 17.1548 11.4627 16.4651 12.3357 15.0857C13.2088 13.6889 13.6453 11.7159 13.6453 9.16667C13.6453 6.61746 13.2088 4.65317 12.3357 3.27381C11.4627 1.87698 10.2318 1.17857 8.64288 1.17857C7.05397 1.17857 5.82301 1.87698 4.95 3.27381C4.09444 4.65317 3.66666 6.61746 3.66666 9.16667C3.66666 11.7159 4.09444 13.6889 4.95 15.0857C5.82301 16.4651 7.05397 17.1548 8.64288 17.1548ZM20.3342 8.90476C20.3342 8.01429 20.212 7.35952 19.9676 6.94048C19.7406 6.50397 19.2604 6.28571 18.5271 6.28571H18.2652V5.5H20.858C21.4517 5.5 21.9144 5.57857 22.2461 5.73571C22.5953 5.8754 22.866 6.11984 23.058 6.46905C23.9485 5.64841 25.2231 5.2381 26.8818 5.2381C28.5406 5.2381 29.7803 5.63095 30.6009 6.41667C31.439 7.18492 31.858 8.39841 31.858 10.0571V17.8095H28.4533V10.031C28.4533 8.82619 28.2263 7.94444 27.7723 7.38571C27.3358 6.82698 26.7334 6.54762 25.9652 6.54762C25.0398 6.54762 24.2977 6.76587 23.739 7.20238V17.8095H20.3342V8.90476ZM34.9798 3.92857C34.9798 3.0381 34.8576 2.38333 34.6132 1.96429C34.3687 1.52778 33.8798 1.30952 33.1465 1.30952H32.8846V0.52381H36.0275C36.656 0.52381 37.1362 0.628571 37.4679 0.838095C37.7997 1.04762 38.0354 1.39683 38.1751 1.88571C38.3148 2.35714 38.3846 3.0381 38.3846 3.92857V17.8095H34.9798V3.92857ZM42.4654 22.131C43.4258 22.131 44.2027 21.9476 44.7964 21.581C45.39 21.2143 45.8702 20.5508 46.2369 19.5905L46.7869 18.1762L42.0726 7.85714C41.4964 6.6 40.6845 5.90159 39.6369 5.7619V5.2381H41.9416C42.7099 5.2381 43.3908 5.43016 43.9845 5.81429C44.5781 6.18095 45.0321 6.6873 45.3464 7.33333L48.3583 13.9333L51.5535 5.5H52.9416L47.6511 19.5119C47.1623 20.8738 46.5948 21.7992 45.9488 22.2881C45.3027 22.7944 44.4908 23.0476 43.5131 23.0476H42.4654V22.131ZM57.6285 17.8095C56.9999 17.8095 56.5198 17.7135 56.188 17.5214C55.8563 17.3119 55.6206 16.9714 55.4809 16.5C55.3412 16.0111 55.2714 15.3127 55.2714 14.4048V0.52381H58.6761V14.4048C58.6761 15.2952 58.7983 15.9587 59.0428 16.3952C59.2872 16.8143 59.7761 17.0238 60.5095 17.0238H60.7714V17.8095H57.6285ZM63.2519 8.90476C63.2519 8.01429 63.1296 7.35952 62.8852 6.94048C62.6582 6.50397 62.178 6.28571 61.4447 6.28571H61.1828V5.5H63.7757C64.3693 5.5 64.832 5.57857 65.1638 5.73571C65.513 5.8754 65.7836 6.11984 65.9757 6.46905C66.8661 5.64841 68.1407 5.2381 69.7995 5.2381C71.4582 5.2381 72.6979 5.63095 73.5185 6.41667C74.3566 7.18492 74.7757 8.39841 74.7757 10.0571V17.8095H71.3709V10.031C71.3709 8.82619 71.1439 7.94444 70.6899 7.38571C70.2534 6.82698 69.6511 6.54762 68.8828 6.54762C67.9574 6.54762 67.2153 6.76587 66.6566 7.20238V17.8095H63.2519V8.90476ZM82.2188 18.0714C80.176 18.0714 78.7704 17.7135 78.0022 16.9976C77.7228 16.7357 77.5482 16.369 77.4783 15.8976C77.4085 15.4087 77.3736 14.7365 77.3736 13.881H78.2903C78.4474 14.7889 78.8053 15.5222 79.3641 16.081C79.9228 16.6222 80.6998 16.8929 81.695 16.8929C83.441 16.8929 84.3141 16.2992 84.3141 15.1119C84.3141 14.6579 84.122 14.2825 83.7379 13.9857C83.3712 13.6889 82.7776 13.3571 81.9569 12.9905L80.595 12.4143C79.4776 11.9254 78.6395 11.3929 78.0807 10.8167C77.522 10.2405 77.2426 9.54206 77.2426 8.72143C77.2426 7.62143 77.6966 6.76587 78.6045 6.15476C79.5299 5.54365 80.7347 5.2381 82.2188 5.2381C84.2617 5.2381 85.6672 5.59603 86.4355 6.3119C86.7149 6.57381 86.8895 6.94048 86.9593 7.4119C87.0291 7.88333 87.0641 8.55555 87.0641 9.42857H86.1474C85.9902 8.52063 85.6323 7.79603 85.0736 7.25476C84.5149 6.69603 83.7379 6.41667 82.7426 6.41667C81.9918 6.41667 81.4331 6.58254 81.0664 6.91429C80.6998 7.22857 80.5164 7.65635 80.5164 8.19762C80.5164 8.63413 80.6649 9.00079 80.9617 9.29762C81.276 9.57698 81.7474 9.85635 82.376 10.1357L83.9474 10.7905C85.2395 11.3317 86.1649 11.8817 86.7236 12.4405C87.2996 12.9817 87.5877 13.6976 87.5877 14.5881C87.5877 15.7056 87.0903 16.5698 86.095 17.181C85.1172 17.7746 83.8252 18.0714 82.2188 18.0714ZM94.3911 18.0714C93.1864 18.0714 92.2522 17.7484 91.5887 17.1024C90.9252 16.4389 90.5935 15.4873 90.5935 14.2476V6.67857H89.0221V5.5H90.5935V3.14286L91.903 1.57143H93.9983V5.5H96.8792V6.67857H93.9983V14.4048C93.9983 15.3476 94.1117 16.0024 94.3387 16.369C94.5657 16.7183 94.9062 16.8929 95.3602 16.8929C96.076 16.8929 96.7657 16.6571 97.4292 16.1857L97.7959 16.919C96.9229 17.6873 95.7879 18.0714 94.3911 18.0714ZM102.943 18.0714C101.529 18.0714 100.429 17.7571 99.6432 17.1286C98.8749 16.4825 98.4908 15.6183 98.4908 14.5357C98.4908 13.6627 98.6916 12.9381 99.0932 12.3619C99.5122 11.7857 100.237 11.3492 101.267 11.0524C102.297 10.7556 103.729 10.6071 105.562 10.6071H105.955C105.955 9.08809 105.746 8.01429 105.327 7.38571C104.907 6.73968 104.288 6.41667 103.467 6.41667C102.786 6.41667 102.227 6.58254 101.791 6.91429C101.354 7.24603 101.04 7.86587 100.848 8.77381H99.4075C99.4075 8.18016 99.4424 7.67381 99.5122 7.25476C99.5995 6.83571 99.7829 6.46905 100.062 6.15476C100.603 5.54365 101.913 5.2381 103.991 5.2381C105.737 5.2381 107.064 5.70079 107.972 6.62619C108.897 7.53413 109.36 8.90476 109.36 10.7381V17.8095H107.134L106.217 16.631H106.086C105.824 17.0325 105.414 17.373 104.855 17.6524C104.314 17.9317 103.677 18.0714 102.943 18.0714ZM103.729 16.7619C104.253 16.7619 104.707 16.5873 105.091 16.2381C105.492 15.8889 105.78 15.496 105.955 15.0595V11.7857H105.562C104.323 11.7857 103.423 12.0127 102.865 12.4667C102.306 12.9032 102.027 13.5929 102.027 14.5357C102.027 15.2516 102.175 15.8016 102.472 16.1857C102.769 16.5698 103.188 16.7619 103.729 16.7619Z" fill="black"/>
<path d="M79.8733 26.4453C80.3244 26.4453 80.6753 26.3826 80.926 26.2573C81.3199 26.0604 81.5168 25.7059 81.5168 25.1938C81.5168 24.6782 81.3073 24.3309 80.8884 24.1519C80.6521 24.0516 80.3012 24.0015 79.8357 24.0015H77.9289V26.4453H79.8733ZM80.2331 30.0869C80.8884 30.0869 81.3557 29.8971 81.635 29.5176C81.8104 29.2777 81.8982 28.9876 81.8982 28.6475C81.8982 28.0745 81.6421 27.6842 81.1301 27.4766C80.858 27.3656 80.4981 27.3101 80.0505 27.3101H77.9289V30.0869H80.2331ZM76.8816 23.1099H80.2707C81.1945 23.1099 81.8516 23.3856 82.2419 23.937C82.4711 24.2629 82.5857 24.6388 82.5857 25.0649C82.5857 25.5627 82.4442 25.9709 82.1613 26.2896C82.0145 26.4578 81.8033 26.6118 81.5276 26.7515C81.9322 26.9054 82.2348 27.0791 82.4353 27.2725C82.7898 27.6162 82.967 28.0907 82.967 28.6958C82.967 29.2043 82.8077 29.6644 82.489 30.0762C82.0127 30.6921 81.2554 31 80.217 31H76.8816V23.1099Z" fill="black"/>
<path d="M86.3274 23.1099H92.0798V24.0767H87.3694V26.4722H91.7253V27.3853H87.3694V30.0601H92.1604V31H86.3274V23.1099Z" fill="black"/>
<path d="M101.284 23.1099V24.0498H98.6253V31H97.5403V24.0498H94.8816V23.1099H101.284Z" fill="black"/>
<path d="M107.48 27.7666L106.283 24.2808L105.01 27.7666H107.48ZM105.724 23.1099H106.932L109.795 31H108.624L107.824 28.6367H104.703L103.849 31H102.754L105.724 23.1099Z" fill="black"/>
</svg>
